<svg xmlns="http://www.w3.org/2000/svg" xmlns:xlink="http://www.w3.org/1999/xlink" width="48" zoomAndPan="magnify" viewBox="0 0 375 374.999991" height="48" preserveAspectRatio="xMidYMid meet" version="1.0"><metadata><ContainsAiGeneratedContent>Yes</ContainsAiGeneratedContent></metadata><defs><g/></defs><path fill="#0aa25c" d="M 272.804688 186.925781 C 274.53125 181.410156 282.476562 176.109375 287.804688 178.234375 C 296.972656 181.867188 288.78125 200.332031 277.792969 196.566406 C 273.109375 194.988281 271.597656 190.890625 272.804688 186.925781 Z M 253.914062 188.476562 C 253.554688 187.171875 253.46875 186.222656 251.6875 183.867188 C 245.164062 175.347656 236.515625 178.664062 238.007812 187.789062 C 240.421875 202.515625 255.550781 199.425781 253.914062 188.476562 Z M 260.765625 190.605469 C 266.210938 192.011719 270.707031 187.917969 271.585938 182.085938 C 272.101562 179.066406 269.617188 168.9375 262.589844 169.46875 C 256.3125 169.972656 253.207031 180.304688 256.097656 186.019531 C 257.132812 188.03125 258.566406 190.058594 260.765625 190.605469 Z M 285.878906 198.910156 C 279.976562 201.28125 279.316406 208.867188 283.769531 212.257812 C 291.210938 217.902344 300.207031 209.65625 299.933594 203.878906 C 299.660156 198.648438 293.625 195.820312 285.878906 198.910156 Z M 277.546875 205.128906 C 279.628906 210.460938 281.699219 217.84375 279.761719 223.234375 C 277.132812 230.445312 269.128906 231.910156 263.742188 227.886719 C 256.6875 222.628906 258.152344 223.605469 250.9375 223.894531 C 239.546875 224.441406 237.175781 213.664062 244.460938 205.03125 C 250.96875 197.3125 264.644531 189.757812 272.273438 196.335938 C 275.480469 199.09375 276.5 202.429688 277.546875 205.128906 Z M 271.339844 207.3125 C 269.6875 206.078125 268.164062 205.761719 265.4375 206.867188 C 263.855469 207.472656 263.109375 208.550781 262.964844 207.328125 C 262.621094 199.785156 250.566406 200.992188 255.707031 210.375 C 256.957031 212.660156 258.308594 214.972656 259.847656 217.601562 C 259.917969 217.816406 260.292969 217.902344 260.550781 217.832031 C 266.328125 214.398438 271.210938 214.640625 272.417969 210.417969 C 272.707031 209.296875 272.347656 208.148438 271.339844 207.3125 Z M 271.339844 207.3125 " fill-opacity="1" fill-rule="nonzero"/><g fill="#0aa25c" fill-opacity="1"><g transform="translate(75.572117, 222.476997)"><g><path d="M 2.546875 -7.015625 L 7.5625 -8.390625 L 7.5625 -34.578125 C 7.5625 -35.773438 7.46875 -36.566406 7.28125 -36.953125 C 7.101562 -37.335938 6.625 -37.691406 5.84375 -38.015625 L 2.265625 -40.015625 L 2.6875 -45.578125 C 6.164062 -46.128906 9.460938 -46.53125 12.578125 -46.78125 C 15.691406 -47.03125 19.039062 -47.15625 22.625 -47.15625 C 27.570312 -47.15625 31.546875 -46.628906 34.546875 -45.578125 C 37.546875 -44.523438 39.742188 -42.875 41.140625 -40.625 C 42.546875 -38.382812 43.25 -35.40625 43.25 -31.6875 C 43.25 -26.875 41.515625 -23.09375 38.046875 -20.34375 C 34.585938 -17.59375 29.859375 -16.21875 23.859375 -16.21875 L 20.078125 -16.359375 L 20.078125 -11.140625 C 20.078125 -10.035156 20.15625 -9.320312 20.3125 -9 C 20.476562 -8.6875 20.878906 -8.367188 21.515625 -8.046875 L 25.71875 -5.5625 L 25.4375 0 L 2.890625 0 Z M 24.46875 -23.859375 C 26.945312 -23.859375 28.757812 -24.109375 29.90625 -24.609375 C 30.40625 -26.859375 30.65625 -29.21875 30.65625 -31.6875 C 30.65625 -34.394531 30.140625 -36.320312 29.109375 -37.46875 C 28.078125 -38.613281 26.414062 -39.1875 24.125 -39.1875 C 23.351562 -39.1875 22.003906 -39.09375 20.078125 -38.90625 L 20.078125 -24.265625 C 21.316406 -23.992188 22.78125 -23.859375 24.46875 -23.859375 Z M 24.46875 -23.859375 "/></g></g></g><g fill="#0aa25c" fill-opacity="1"><g transform="translate(121.079454, 222.476997)"><g><path d="M 17.8125 0.828125 C 12.445312 0.828125 8.304688 -0.796875 5.390625 -4.046875 C 2.484375 -7.304688 1.03125 -11.800781 1.03125 -17.53125 C 1.03125 -21.519531 1.738281 -24.945312 3.15625 -27.8125 C 4.582031 -30.675781 6.597656 -32.863281 9.203125 -34.375 C 11.816406 -35.882812 14.867188 -36.640625 18.359375 -36.640625 C 23.535156 -36.640625 27.507812 -34.988281 30.28125 -31.6875 C 33.050781 -28.394531 34.367188 -23.695312 34.234375 -17.59375 L 13.34375 -13.75 C 13.976562 -11.820312 14.878906 -10.410156 16.046875 -9.515625 C 17.222656 -8.628906 18.769531 -8.1875 20.6875 -8.1875 C 22.019531 -8.1875 23.601562 -8.378906 25.4375 -8.765625 C 27.269531 -9.148438 29.125 -9.6875 31 -10.375 L 32.59375 -3.578125 C 30.894531 -2.296875 28.691406 -1.238281 25.984375 -0.40625 C 23.285156 0.414062 20.5625 0.828125 17.8125 0.828125 Z M 22.96875 -23.375 C 22.875 -25.113281 22.378906 -26.382812 21.484375 -27.1875 C 20.585938 -27.988281 19.335938 -28.390625 17.734375 -28.390625 C 16.410156 -28.390625 15.148438 -28.207031 13.953125 -27.84375 C 12.992188 -25.59375 12.5625 -23.164062 12.65625 -20.5625 Z M 22.96875 -23.375 "/></g></g></g><g fill="#0aa25c" fill-opacity="1"><g transform="translate(158.956466, 222.476997)"><g><path d="M 15.265625 0.890625 C 11.234375 0.890625 8.253906 -0.101562 6.328125 -2.09375 C 4.398438 -4.09375 3.4375 -7.128906 3.4375 -11.203125 L 3.4375 -27.90625 L -1.375 -27.90625 L -1.375 -32.9375 L 11 -44.203125 L 14.984375 -43.71875 L 14.984375 -35.953125 L 26.53125 -35.953125 L 26.53125 -27.84375 L 14.984375 -27.84375 L 14.984375 -13.6875 C 14.984375 -11.476562 15.289062 -10.007812 15.90625 -9.28125 C 16.53125 -8.550781 17.738281 -8.1875 19.53125 -8.1875 C 21.039062 -8.1875 23.144531 -8.390625 25.84375 -8.796875 L 26.671875 -1.78125 C 25.023438 -1.007812 23.179688 -0.375 21.140625 0.125 C 19.097656 0.632812 17.140625 0.890625 15.265625 0.890625 Z M 15.265625 0.890625 "/></g></g></g><g fill="#0aa25c" fill-opacity="1"><g transform="translate(187.553202, 222.476997)"><g><path d="M 25.03125 0.828125 C 17.28125 0.828125 11.457031 -1.207031 7.5625 -5.28125 C 3.664062 -9.363281 1.71875 -15.414062 1.71875 -23.4375 C 1.71875 -28.34375 2.65625 -32.570312 4.53125 -36.125 C 6.414062 -39.675781 9.144531 -42.390625 12.71875 -44.265625 C 16.289062 -46.148438 20.53125 -47.09375 25.4375 -47.09375 C 31.394531 -47.09375 37.191406 -45.898438 42.828125 -43.515625 C 42.367188 -39.117188 41.726562 -34.71875 40.90625 -30.3125 L 35.6875 -29.96875 L 31.34375 -36.296875 C 29.050781 -37.117188 26.210938 -37.53125 22.828125 -37.53125 C 21.222656 -37.53125 19.296875 -37.375 17.046875 -37.0625 C 16.222656 -35.6875 15.582031 -33.851562 15.125 -31.5625 C 14.664062 -29.269531 14.4375 -26.789062 14.4375 -24.125 C 14.4375 -18.851562 15.488281 -14.921875 17.59375 -12.328125 C 19.707031 -9.742188 22.988281 -8.429688 27.4375 -8.390625 C 28.53125 -8.390625 29.925781 -8.476562 31.625 -8.65625 L 31.625 -13.6875 C 31.625 -14.601562 31.554688 -15.195312 31.421875 -15.46875 C 31.285156 -15.738281 30.894531 -16.0625 30.25 -16.4375 L 27.640625 -17.734375 L 27.90625 -22.40625 L 29.5 -22.6875 C 30 -22.78125 31.785156 -23.066406 34.859375 -23.546875 C 37.929688 -24.023438 40.5 -24.3125 42.5625 -24.40625 C 43.019531 -23.53125 43.363281 -22.546875 43.59375 -21.453125 L 43.59375 -3.4375 C 40.925781 -2.101562 37.96875 -1.054688 34.71875 -0.296875 C 31.46875 0.453125 28.238281 0.828125 25.03125 0.828125 Z M 25.03125 0.828125 "/></g></g></g></svg>
